<?xml version="1.0" standalone="no"?><!-- Generator: Gravit.io --><svg xmlns="http://www.w3.org/2000/svg" xmlns:xlink="http://www.w3.org/1999/xlink" style="isolation:isolate" viewBox="566.5 868 233 173.747" width="233" height="173.747"><g id="Logo"><g id="Group"><path d=" M 566.5 972.47 L 643.48 868 L 721.83 972.47 L 643.48 972.47 L 566.5 972.47 Z " fill="rgb(51,51,51)"/><clipPath id="_clipPath_0bZuZRHhBYQU4FbafQorCYJMqbDpr6c1"><path d=" M 566.5 972.47 L 643.48 868 L 721.83 972.47 L 643.48 972.47 L 566.5 972.47 Z " fill="rgb(51,51,51)"/></clipPath><g clip-path="url(#_clipPath_0bZuZRHhBYQU4FbafQorCYJMqbDpr6c1)"><path d=" M 566.5 1024.7 L 643.48 920.23 L 721.83 1024.7 L 643.48 1024.7 L 566.5 1024.7 Z " fill="rgb(255,255,255)"/></g><path d=" M 644.17 972.47 L 721.15 868 L 799.5 972.47 L 721.15 972.47 L 644.17 972.47 Z " fill="rgb(51,51,51)"/><clipPath id="_clipPath_ttgly8dpq5XTBprEZgDZ2WPnoRkVSXkc"><path d=" M 644.17 972.47 L 721.15 868 L 799.5 972.47 L 721.15 972.47 L 644.17 972.47 Z " fill="rgb(51,51,51)"/></clipPath><g clip-path="url(#_clipPath_ttgly8dpq5XTBprEZgDZ2WPnoRkVSXkc)"><path d=" M 644.17 1024.7 L 721.15 920.23 L 799.5 1024.7 L 721.15 1024.7 L 644.17 1024.7 Z " fill="rgb(255,255,255)"/></g></g><path d=" M 573.22 1030.19 L 567.94 997.79 L 571.7 997.79 L 575.18 1021.07 L 579.54 997.91 L 582.74 997.91 L 587.14 1021.19 L 590.54 997.79 L 594.22 997.79 L 589.02 1030.19 L 585.74 1030.19 L 581.22 1006.19 L 576.66 1030.19 L 573.22 1030.19 L 573.22 1030.19 Z  M 596.42 1030.19 L 603.3 997.79 L 607.66 997.79 L 614.58 1030.19 L 610.3 1030.19 L 608.82 1022.03 L 602.22 1022.03 L 600.66 1030.19 L 596.42 1030.19 L 596.42 1030.19 Z  M 602.82 1018.79 L 608.22 1018.79 L 605.5 1004.19 L 602.82 1018.79 L 602.82 1018.79 Z  M 617.86 1030.19 L 617.86 997.79 L 620.94 997.79 L 630.14 1019.31 L 630.14 997.79 L 633.9 997.79 L 633.9 1030.19 L 631.02 1030.19 L 621.7 1008.07 L 621.7 1030.19 L 617.86 1030.19 L 617.86 1030.19 Z  M 638.98 1030.19 L 638.98 997.79 L 646.02 997.79 L 646.02 997.79 Q 651.26 997.79 653.44 1000.19 L 653.44 1000.19 L 653.44 1000.19 Q 655.62 1002.59 655.62 1007.67 L 655.62 1007.67 L 655.62 1019.59 L 655.62 1019.59 Q 655.62 1024.95 653.48 1027.57 L 653.48 1027.57 L 653.48 1027.57 Q 651.34 1030.19 646.38 1030.19 L 646.38 1030.19 L 638.98 1030.19 L 638.98 1030.19 Z  M 643.5 1026.95 L 646.06 1026.95 L 646.06 1026.95 Q 648.42 1026.95 649.48 1026.03 L 649.48 1026.03 L 649.48 1026.03 Q 650.54 1025.11 650.8 1023.53 L 650.8 1023.53 L 650.8 1023.53 Q 651.06 1021.95 651.06 1018.75 L 651.06 1018.75 L 651.06 1008.23 L 651.06 1008.23 Q 651.06 1005.47 650.72 1004.01 L 650.72 1004.01 L 650.72 1004.01 Q 650.38 1002.55 649.3 1001.85 L 649.3 1001.85 L 649.3 1001.85 Q 648.22 1001.15 645.94 1001.15 L 645.94 1001.15 L 643.5 1001.15 L 643.5 1026.95 L 643.5 1026.95 Z  M 660.06 1030.19 L 660.06 997.79 L 672.62 997.79 L 672.62 1001.15 L 664.58 1001.15 L 664.58 1011.87 L 671.1 1011.87 L 671.1 1015.07 L 664.58 1015.07 L 664.58 1026.95 L 672.7 1026.95 L 672.7 1030.19 L 660.06 1030.19 L 660.06 1030.19 Z  M 676.34 1030.19 L 676.34 997.79 L 682.86 997.79 L 682.86 997.79 Q 687.78 997.79 690.08 999.81 L 690.08 999.81 L 690.08 999.81 Q 692.38 1001.83 692.38 1006.39 L 692.38 1006.39 L 692.38 1006.39 Q 692.38 1012.63 688.38 1013.95 L 688.38 1013.95 L 692.98 1030.19 L 688.62 1030.19 L 684.38 1014.99 L 680.86 1014.99 L 680.86 1030.19 L 676.34 1030.19 L 676.34 1030.19 Z  M 680.86 1011.75 L 682.58 1011.75 L 682.58 1011.75 Q 685.5 1011.75 686.76 1010.59 L 686.76 1010.59 L 686.76 1010.59 Q 688.02 1009.43 688.02 1006.39 L 688.02 1006.39 L 688.02 1006.39 Q 688.02 1004.39 687.58 1003.25 L 687.58 1003.25 L 687.58 1003.25 Q 687.14 1002.11 686.02 1001.57 L 686.02 1001.57 L 686.02 1001.57 Q 684.9 1001.03 682.86 1001.03 L 682.86 1001.03 L 680.86 1001.03 L 680.86 1011.75 L 680.86 1011.75 Z  M 697.1 1030.19 L 697.1 997.79 L 709.66 997.79 L 709.66 1001.15 L 701.62 1001.15 L 701.62 1011.87 L 708.14 1011.87 L 708.14 1015.07 L 701.62 1015.07 L 701.62 1026.95 L 709.74 1026.95 L 709.74 1030.19 L 697.1 1030.19 L 697.1 1030.19 Z  M 713.38 1030.19 L 713.38 997.79 L 719.9 997.79 L 719.9 997.79 Q 724.82 997.79 727.12 999.81 L 727.12 999.81 L 727.12 999.81 Q 729.42 1001.83 729.42 1006.39 L 729.42 1006.39 L 729.42 1006.39 Q 729.42 1012.63 725.42 1013.95 L 725.42 1013.95 L 730.02 1030.19 L 725.66 1030.19 L 721.42 1014.99 L 717.9 1014.99 L 717.9 1030.19 L 713.38 1030.19 L 713.38 1030.19 Z  M 717.9 1011.75 L 719.62 1011.75 L 719.62 1011.75 Q 722.54 1011.75 723.8 1010.59 L 723.8 1010.59 L 723.8 1010.59 Q 725.06 1009.43 725.06 1006.39 L 725.06 1006.39 L 725.06 1006.39 Q 725.06 1004.39 724.62 1003.25 L 724.62 1003.25 L 724.62 1003.25 Q 724.18 1002.11 723.06 1001.57 L 723.06 1001.57 L 723.06 1001.57 Q 721.94 1001.03 719.9 1001.03 L 719.9 1001.03 L 717.9 1001.03 L 717.9 1011.75 L 717.9 1011.75 Z  M 734.06 1030.19 L 734.66 997.79 L 739.1 997.79 L 744.82 1024.07 L 750.58 997.79 L 754.98 997.79 L 755.58 1030.19 L 751.94 1030.19 L 751.58 1006.67 L 746.1 1030.19 L 743.54 1030.19 L 738.1 1006.67 L 737.74 1030.19 L 734.06 1030.19 L 734.06 1030.19 Z  M 758.78 1030.19 L 765.66 997.79 L 770.02 997.79 L 776.94 1030.19 L 772.66 1030.19 L 771.18 1022.03 L 764.58 1022.03 L 763.02 1030.19 L 758.78 1030.19 L 758.78 1030.19 Z  M 765.18 1018.79 L 770.58 1018.79 L 767.86 1004.19 L 765.18 1018.79 L 765.18 1018.79 Z  M 780.22 1030.19 L 780.22 997.79 L 788.26 997.79 L 788.26 997.79 Q 792.46 997.79 794.36 1000.07 L 794.36 1000.07 L 794.36 1000.07 Q 796.26 1002.35 796.26 1006.75 L 796.26 1006.75 L 796.26 1006.75 Q 796.26 1010.71 794.22 1012.91 L 794.22 1012.91 L 794.22 1012.91 Q 792.18 1015.11 788.3 1015.11 L 788.3 1015.11 L 784.74 1015.11 L 784.74 1030.19 L 780.22 1030.19 L 780.22 1030.19 Z  M 784.74 1011.87 L 786.82 1011.87 L 786.82 1011.87 Q 788.82 1011.87 789.92 1011.43 L 789.92 1011.43 L 789.92 1011.43 Q 791.02 1010.99 791.5 1009.91 L 791.5 1009.91 L 791.5 1009.91 Q 791.98 1008.83 791.98 1006.79 L 791.98 1006.79 L 791.98 1006.79 Q 791.98 1004.31 791.62 1003.15 L 791.62 1003.15 L 791.62 1003.15 Q 791.26 1001.99 790.2 1001.51 L 790.2 1001.51 L 790.2 1001.51 Q 789.14 1001.03 786.86 1001.03 L 786.86 1001.03 L 784.74 1001.03 L 784.74 1011.87 L 784.74 1011.87 Z " fill-rule="evenodd" fill="rgb(0,0,0)"/></g></svg>