<?xml version="1.0" standalone="no"?><!-- Generator: Gravit.io --><svg xmlns="http://www.w3.org/2000/svg" xmlns:xlink="http://www.w3.org/1999/xlink" style="isolation:isolate" viewBox="390.5 2298.978 120 165.382" width="120" height="165.382"><g id="pin-many"><g id="Pin"><path d=" M 390.5 2380.26 C 390.5 2347.15 417.39 2320.26 450.5 2320.26 C 483.61 2320.26 510.5 2347.15 510.5 2380.26 C 510.5 2413.38 483.61 2440.26 450.5 2440.26 C 417.39 2440.26 390.5 2413.38 390.5 2380.26 Z " fill="none"/><path d=" M 492.08 2418.52 C 504.68 2406.18 510.07 2394.42 510.5 2375.98 C 510.5 2342.86 483.61 2315.98 450.5 2315.98 C 417.39 2315.98 390.5 2342.86 390.5 2375.98 C 390.5 2392.6 397.27 2407.65 408.21 2418.52 L 449.75 2464.36 L 492.08 2418.52 Z " fill="rgb(32,202,174)"/></g><g id="tractor"><g id="r-wheel"><path d=" M 422.37 2363.99 C 419.74 2364.19 417.26 2364.88 415 2365.97 C 415.39 2366.71 415.13 2367.64 414.39 2368.06 C 413.66 2368.48 412.73 2368.25 412.29 2367.54 C 410.17 2368.99 408.34 2370.82 406.89 2372.93 C 407.6 2373.38 407.83 2374.31 407.41 2375.04 C 406.99 2375.78 406.06 2376.04 405.32 2375.65 C 404.23 2377.91 403.54 2380.39 403.34 2383.02 C 404.18 2383.05 404.85 2383.74 404.85 2384.59 C 404.85 2385.43 404.18 2386.12 403.35 2386.15 C 403.54 2388.78 404.23 2391.27 405.32 2393.52 C 406.06 2393.13 406.99 2393.4 407.41 2394.13 C 407.83 2394.86 407.6 2395.79 406.89 2396.24 C 408.34 2398.35 410.17 2400.18 412.29 2401.63 C 412.73 2400.92 413.66 2400.69 414.39 2401.11 C 415.13 2401.53 415.39 2402.46 415 2403.2 C 417.26 2404.29 419.74 2404.98 422.37 2405.18 C 422.4 2404.34 423.09 2403.67 423.94 2403.67 C 424.78 2403.67 425.47 2404.34 425.5 2405.18 C 428.13 2404.98 430.62 2404.29 432.87 2403.2 C 432.48 2402.46 432.75 2401.53 433.48 2401.11 C 434.21 2400.69 435.14 2400.92 435.59 2401.63 C 437.7 2400.18 439.53 2398.35 440.98 2396.24 C 440.27 2395.79 440.04 2394.86 440.46 2394.13 C 440.88 2393.39 441.81 2393.13 442.55 2393.52 C 443.64 2391.27 444.33 2388.78 444.53 2386.15 C 443.69 2386.12 443.02 2385.43 443.02 2384.59 C 443.02 2383.74 443.69 2383.05 444.53 2383.02 C 444.33 2380.39 443.64 2377.91 442.55 2375.65 C 441.81 2376.04 440.88 2375.78 440.46 2375.04 C 440.04 2374.31 440.27 2373.38 440.98 2372.94 C 439.53 2370.82 437.7 2368.99 435.59 2367.54 C 435.14 2368.25 434.21 2368.48 433.48 2368.06 C 432.74 2367.64 432.48 2366.71 432.87 2365.97 C 430.62 2364.88 428.13 2364.19 425.5 2363.99 C 425.47 2364.83 424.78 2365.5 423.94 2365.5 C 423.09 2365.5 422.4 2364.83 422.37 2363.99 Z " fill="rgb(108,108,108)" vector-effect="non-scaling-stroke" stroke-width="3" stroke="rgb(51,51,51)" stroke-linejoin="round" stroke-linecap="round" stroke-miterlimit="3"/><path d=" M 402.5 2373.57 C 406.62 2365.95 414.68 2360.77 423.94 2360.77 C 437.38 2360.77 448.29 2371.69 448.29 2385.13 C 448.29 2386.32 448.2 2387.5 448.04 2388.64" fill="none" vector-effect="non-scaling-stroke" stroke-width="3" stroke="rgb(51,51,51)" stroke-linejoin="miter" stroke-linecap="round" stroke-miterlimit="3"/><path d=" M 412.03 2385.13 C 412.03 2378.55 417.36 2373.22 423.94 2373.22 C 430.51 2373.22 435.84 2378.55 435.84 2385.13 C 435.84 2391.7 430.51 2397.03 423.94 2397.03 C 417.36 2397.03 412.03 2391.7 412.03 2385.13 Z " fill="rgb(162,115,30)" vector-effect="non-scaling-stroke" stroke-width="2.25" stroke="rgb(51,51,51)" stroke-linejoin="miter" stroke-linecap="butt" stroke-miterlimit="3"/><path d=" M 421.5 2385.13 C 421.5 2383.78 422.59 2382.68 423.94 2382.68 C 425.28 2382.68 426.38 2383.78 426.38 2385.13 C 426.38 2386.47 425.28 2387.57 423.94 2387.57 C 422.59 2387.57 421.5 2386.47 421.5 2385.13 Z " fill="none" vector-effect="non-scaling-stroke" stroke-width="2.25" stroke="rgb(51,51,51)" stroke-linejoin="miter" stroke-linecap="butt" stroke-miterlimit="3"/><path d=" M 424.42 2390.76 C 424.42 2391.14 424.11 2391.46 423.72 2391.46 C 423.34 2391.46 423.02 2391.14 423.02 2390.76 C 423.02 2390.37 423.34 2390.06 423.72 2390.06 C 424.11 2390.06 424.42 2390.37 424.42 2390.76 Z " fill="rgb(51,51,51)"/><path d=" M 419.3 2388.36 C 418.97 2388.55 418.54 2388.44 418.35 2388.1 C 418.16 2387.77 418.27 2387.34 418.6 2387.15 C 418.94 2386.96 419.36 2387.07 419.56 2387.41 C 419.75 2387.74 419.63 2388.17 419.3 2388.36 Z " fill="rgb(51,51,51)"/><path d=" M 418.82 2382.73 C 418.48 2382.54 418.37 2382.11 418.56 2381.77 C 418.75 2381.44 419.18 2381.33 419.51 2381.52 C 419.85 2381.71 419.96 2382.14 419.77 2382.47 C 419.58 2382.81 419.15 2382.92 418.82 2382.73 Z " fill="rgb(51,51,51)"/><path d=" M 423.45 2379.49 C 423.45 2379.11 423.77 2378.8 424.15 2378.8 C 424.54 2378.8 424.85 2379.11 424.85 2379.49 C 424.85 2379.88 424.54 2380.19 424.15 2380.19 C 423.77 2380.19 423.45 2379.88 423.45 2379.49 Z " fill="rgb(51,51,51)"/><path d=" M 428.57 2381.89 C 428.91 2381.7 429.33 2381.81 429.53 2382.15 C 429.72 2382.48 429.6 2382.91 429.27 2383.1 C 428.94 2383.29 428.51 2383.18 428.32 2382.84 C 428.13 2382.51 428.24 2382.08 428.57 2381.89 Z " fill="rgb(51,51,51)"/><path d=" M 429.06 2387.52 C 429.39 2387.72 429.5 2388.14 429.31 2388.48 C 429.12 2388.81 428.69 2388.92 428.36 2388.73 C 428.02 2388.54 427.91 2388.11 428.1 2387.78 C 428.3 2387.45 428.72 2387.33 429.06 2387.52 Z " fill="rgb(51,51,51)"/></g><g id="body"><path d=" M 413.53 2362.92 L 413.53 2350.26 C 420.43 2350.11 420.11 2353.12 421.9 2360.56" fill="rgb(108,108,108)" vector-effect="non-scaling-stroke" stroke-width="3" stroke="rgb(51,51,51)" stroke-linejoin="round" stroke-linecap="round" stroke-miterlimit="3"/><path d=" M 450.22 2355.19 L 482.06 2355.19 C 486.04 2355.19 489.27 2358.27 489.27 2362.06 L 489.27 2362.06 L 446.57 2362.06 L 450.22 2355.19 Z " fill="rgb(232,94,94)" vector-effect="non-scaling-stroke" stroke-width="3" stroke="rgb(51,51,51)" stroke-linejoin="round" stroke-linecap="square" stroke-miterlimit="3"/><path d=" M 445.5 2374.08 C 447.93 2372.07 450.58 2369.43 449.79 2362.06 L 489.27 2362.06 L 489.27 2385.66 L 448.29 2385.66 C 448.52 2381.34 447.59 2377.48 445.5 2374.08 Z " fill="rgb(223,72,72)" vector-effect="non-scaling-stroke" stroke-width="3" stroke="rgb(51,51,51)" stroke-linejoin="round" stroke-linecap="square" stroke-miterlimit="3"/><rect x="480.688" y="2362.06" width="8.582" height="23.602" transform="matrix(1,0,0,1,0,0)" fill="none" vector-effect="non-scaling-stroke" stroke-width="3" stroke="rgb(51,51,51)" stroke-linejoin="miter" stroke-linecap="square" stroke-miterlimit="3"/><rect x="448.289" y="2381.8" width="32.399" height="3.862" transform="matrix(1,0,0,1,0,0)" fill="none" vector-effect="non-scaling-stroke" stroke-width="3" stroke="rgb(51,51,51)" stroke-linejoin="miter" stroke-linecap="square" stroke-miterlimit="3"/><line x1="455.16" y1="2367.42" x2="464.38" y2="2367.42" vector-effect="non-scaling-stroke" stroke-width="3" stroke="rgb(51,51,51)" stroke-linejoin="miter" stroke-linecap="round" stroke-miterlimit="3"/><line x1="455.26" y1="2370.86" x2="464.49" y2="2370.86" vector-effect="non-scaling-stroke" stroke-width="3" stroke="rgb(51,51,51)" stroke-linejoin="miter" stroke-linecap="round" stroke-miterlimit="3"/><path d="M 457.13 2374.08 L 463.48 2374.08 C 464.57 2374.08 465.45 2374.94 465.45 2376.01 L 465.45 2376.01 C 465.45 2377.07 464.57 2377.94 463.48 2377.94 L 457.13 2377.94 C 456.04 2377.94 455.16 2377.07 455.16 2376.01 L 455.16 2376.01 C 455.16 2374.94 456.04 2374.08 457.13 2374.08 Z" style="fill:none;stroke:#333333;stroke-width:3;stroke-linecap:round;stroke-miterlimit:3;"/><line x1="484.34" y1="2366.57" x2="488.84" y2="2366.57" vector-effect="non-scaling-stroke" stroke-width="3" stroke="rgb(51,51,51)" stroke-linejoin="miter" stroke-linecap="square" stroke-miterlimit="3"/><line x1="484.34" y1="2370" x2="488.84" y2="2370" vector-effect="non-scaling-stroke" stroke-width="3" stroke="rgb(51,51,51)" stroke-linejoin="miter" stroke-linecap="square" stroke-miterlimit="3"/><line x1="484.34" y1="2373.43" x2="488.84" y2="2373.43" vector-effect="non-scaling-stroke" stroke-width="3" stroke="rgb(51,51,51)" stroke-linejoin="miter" stroke-linecap="square" stroke-miterlimit="3"/><line x1="484.34" y1="2376.86" x2="488.84" y2="2376.86" vector-effect="non-scaling-stroke" stroke-width="3" stroke="rgb(51,51,51)" stroke-linejoin="miter" stroke-linecap="square" stroke-miterlimit="3"/><line x1="437.78" y1="2358.84" x2="447" y2="2347.68" vector-effect="non-scaling-stroke" stroke-width="3" stroke="rgb(51,51,51)" stroke-linejoin="miter" stroke-linecap="round" stroke-miterlimit="3"/><line x1="442.71" y1="2353.26" x2="448.72" y2="2357.77" vector-effect="non-scaling-stroke" stroke-width="3" stroke="rgb(51,51,51)" stroke-linejoin="miter" stroke-linecap="square" stroke-miterlimit="3"/><g id="Group"><path d="M 470.39 2350 L 475.32 2350 L 475.32 2375.53 C 475.32 2376.86 474.24 2377.94 472.91 2377.94 L 472.8 2377.94 C 471.47 2377.94 470.39 2376.86 470.39 2375.53 L 470.39 2350 Z" style="stroke:none;fill:#CA6A20;stroke-linecap:round;stroke-miterlimit:3;"/><path d="M 470.39 2350 L 475.32 2350 L 475.32 2375.53 C 475.32 2376.86 474.24 2377.94 472.91 2377.94 L 472.8 2377.94 C 471.47 2377.94 470.39 2376.86 470.39 2375.53 L 470.39 2350 Z" style="fill:none;stroke:#333333;stroke-width:3.0000000000000004;stroke-linecap:square;stroke-miterlimit:3;"/><rect x="471.14" y="2332.88" width="3.433" height="17.117" transform="matrix(1,0,0,1,0,0)" fill="rgb(108,108,108)" vector-effect="non-scaling-stroke" stroke-width="3" stroke="rgb(51,51,51)" stroke-linejoin="miter" stroke-linecap="square" stroke-miterlimit="3"/></g></g><g id="f-wheel"><path d=" M 477.25 2393.17 C 477.25 2386.48 482.69 2381.05 489.38 2381.05 C 496.07 2381.05 501.5 2386.48 501.5 2393.17 C 501.5 2399.86 496.07 2405.29 489.38 2405.29 C 482.69 2405.29 477.25 2399.86 477.25 2393.17 Z " fill="rgb(108,108,108)" vector-effect="non-scaling-stroke" stroke-width="3" stroke="rgb(51,51,51)" stroke-linejoin="miter" stroke-linecap="square" stroke-miterlimit="3"/><path d=" M 482.57 2393.17 C 482.57 2389.47 485.57 2386.47 489.27 2386.47 C 492.97 2386.47 495.98 2389.47 495.98 2393.17 C 495.98 2396.87 492.97 2399.88 489.27 2399.88 C 485.57 2399.88 482.57 2396.87 482.57 2393.17 Z " fill="rgb(162,115,30)" vector-effect="non-scaling-stroke" stroke-width="3" stroke="rgb(51,51,51)" stroke-linejoin="miter" stroke-linecap="square" stroke-miterlimit="3"/><path d=" M 487.34 2393.17 C 487.34 2392.11 488.2 2391.24 489.27 2391.24 C 490.34 2391.24 491.2 2392.11 491.2 2393.17 C 491.2 2394.24 490.34 2395.1 489.27 2395.1 C 488.2 2395.1 487.34 2394.24 487.34 2393.17 Z " fill="none" vector-effect="non-scaling-stroke" stroke-width="2.25" stroke="rgb(51,51,51)" stroke-linejoin="miter" stroke-linecap="square" stroke-miterlimit="3"/></g><line x1="402.5" y1="2405.29" x2="500.24" y2="2405.29" vector-effect="non-scaling-stroke" stroke-width="3" stroke-dasharray="3,9,105" stroke="rgb(51,51,51)" stroke-linejoin="miter" stroke-linecap="round" stroke-miterlimit="3"/></g></g></svg>