<?xml version="1.0" standalone="no"?><!-- Generator: Gravit.io --><svg xmlns="http://www.w3.org/2000/svg" xmlns:xlink="http://www.w3.org/1999/xlink" style="isolation:isolate" viewBox="390.5 1388.36 120 165.382" width="120" height="165.382"><g id="pin-many"><g id="Pin"><path d=" M 390.5 1469.64 C 390.5 1436.53 417.39 1409.64 450.5 1409.64 C 483.61 1409.64 510.5 1436.53 510.5 1469.64 C 510.5 1502.76 483.61 1529.64 450.5 1529.64 C 417.39 1529.64 390.5 1502.76 390.5 1469.64 Z " fill="none"/><path d=" M 492.08 1507.91 C 504.68 1495.56 510.07 1483.8 510.5 1465.36 C 510.5 1432.25 483.61 1405.36 450.5 1405.36 C 417.39 1405.36 390.5 1432.25 390.5 1465.36 C 390.5 1481.98 397.27 1497.04 408.21 1507.91 L 449.75 1553.74 L 492.08 1507.91 Z " fill="rgb(32,202,174)"/></g><g id="Bath"><g id="Group"><path d="M 412.67 1476.32 L 487.99 1476.32 L 487.99 1496.62 C 487.99 1498.48 486.47 1499.99 484.61 1499.99 L 416.05 1499.99 C 414.18 1499.99 412.67 1498.48 412.67 1496.62 L 412.67 1476.32 Z" style="stroke:none;fill:#FFFFFF;stroke-miterlimit:10;"/><path d="M 412.67 1476.32 L 487.99 1476.32 L 487.99 1496.62 C 487.99 1498.48 486.47 1499.99 484.61 1499.99 L 416.05 1499.99 C 414.18 1499.99 412.67 1498.48 412.67 1496.62 L 412.67 1476.32 Z" style="fill:none;stroke:#333333;stroke-width:3;stroke-linecap:square;stroke-linejoin:round;stroke-miterlimit:3;"/><clipPath id="_clipPath_G22CFGfsI4DBhD38P0Drktt9ASX2dUNo"><path d="M 412.67 1476.32 L 487.99 1476.32 L 487.99 1496.62 C 487.99 1498.48 486.47 1499.99 484.61 1499.99 L 416.05 1499.99 C 414.18 1499.99 412.67 1498.48 412.67 1496.62 L 412.67 1476.32 Z" style="stroke:black;fill:white;stroke-miterlimit:10;"/><path d="M 412.67 1476.32 L 487.99 1476.32 L 487.99 1496.62 C 487.99 1498.48 486.47 1499.99 484.61 1499.99 L 416.05 1499.99 C 414.18 1499.99 412.67 1498.48 412.67 1496.62 L 412.67 1476.32 Z" style="fill:white;stroke:black;stroke-width:3;stroke-linecap:square;stroke-linejoin:round;stroke-miterlimit:3;"/></clipPath><g clip-path="url(#_clipPath_G22CFGfsI4DBhD38P0Drktt9ASX2dUNo)"><rect x="412.668" y="1485.337" width="75.32" height="15.221" transform="matrix(1,0,0,1,0,0)" fill="rgb(84,178,219)"/></g><line x1="407.37" y1="1476.32" x2="493.63" y2="1476.32" vector-effect="non-scaling-stroke" stroke-width="3" stroke="rgb(51,51,51)" stroke-linejoin="miter" stroke-linecap="square" stroke-miterlimit="3"/></g><path d=" M 412.67 1441.54 C 412.67 1436.12 417.07 1431.71 422.5 1431.71 C 425.31 1431.71 427.85 1432.9 429.63 1434.82" fill="none" vector-effect="non-scaling-stroke" stroke-width="3" stroke="rgb(51,51,51)" stroke-linejoin="miter" stroke-linecap="butt" stroke-miterlimit="3"/><path d=" M 429.53 1447.19 C 428.11 1445.73 427.25 1443.74 427.25 1441.54 C 427.25 1436.99 430.95 1433.3 435.5 1433.3 C 437.69 1433.3 439.69 1434.16 441.15 1435.57 L 429.53 1447.19 Z  M 412.67 1439.96 L 412.67 1478.64" fill-rule="evenodd" fill="none" vector-effect="non-scaling-stroke" stroke-width="3" stroke="rgb(51,51,51)" stroke-linejoin="miter" stroke-linecap="butt" stroke-miterlimit="3"/><path d=" M 418.92 1505.68 C 418.92 1504.22 420.1 1503.03 421.56 1503.03 C 423.02 1503.03 424.21 1504.22 424.21 1505.68 C 424.21 1507.14 423.02 1508.32 421.56 1508.32 C 420.1 1508.32 418.92 1507.14 418.92 1505.68 Z " fill="rgb(51,51,51)" vector-effect="non-scaling-stroke" stroke-width="2.25" stroke="rgb(51,51,51)" stroke-linejoin="miter" stroke-linecap="square" stroke-miterlimit="3"/><path d=" M 476.31 1505.68 C 476.31 1504.22 477.5 1503.03 478.96 1503.03 C 480.42 1503.03 481.61 1504.22 481.61 1505.68 C 481.61 1507.14 480.42 1508.32 478.96 1508.32 C 477.5 1508.32 476.31 1507.14 476.31 1505.68 Z " fill="rgb(51,51,51)" vector-effect="non-scaling-stroke" stroke-width="2.25" stroke="rgb(51,51,51)" stroke-linejoin="miter" stroke-linecap="square" stroke-miterlimit="3"/><line x1="434.65" y1="1446.3" x2="444.79" y2="1456.45" vector-effect="non-scaling-stroke" stroke-width="2.25" stroke-dasharray="2,5,14" stroke="rgb(51,51,51)" stroke-linejoin="miter" stroke-linecap="round" stroke-miterlimit="3"/><line x1="438.45" y1="1443.13" x2="448.6" y2="1453.28" vector-effect="non-scaling-stroke" stroke-width="2.25" stroke-dasharray="4,5,9" stroke="rgb(51,51,51)" stroke-linejoin="miter" stroke-linecap="round" stroke-miterlimit="3"/><line x1="442.26" y1="1439.96" x2="448.6" y2="1446.3" vector-effect="non-scaling-stroke" stroke-width="2.25" stroke-dasharray="2,5,9" stroke="rgb(51,51,51)" stroke-linejoin="miter" stroke-linecap="round" stroke-miterlimit="3"/><line x1="421.05" y1="1493.23" x2="483.37" y2="1493.23" vector-effect="non-scaling-stroke" stroke-width="2.25" stroke="rgb(51,51,51)" stroke-linejoin="miter" stroke-linecap="round" stroke-miterlimit="3"/></g></g></svg>