<?xml version="1.0" standalone="no"?><!-- Generator: Gravit.io --><svg xmlns="http://www.w3.org/2000/svg" xmlns:xlink="http://www.w3.org/1999/xlink" style="isolation:isolate" viewBox="390.5 1830 120 165.382" width="120" height="165.382"><g id="pin-many"><g id="Pin"><path d=" M 390.5 1911.28 C 390.5 1878.17 417.39 1851.28 450.5 1851.28 C 483.61 1851.28 510.5 1878.17 510.5 1911.28 C 510.5 1944.4 483.61 1971.28 450.5 1971.28 C 417.39 1971.28 390.5 1944.4 390.5 1911.28 Z " fill="none"/><path d=" M 492.08 1949.55 C 504.68 1937.2 510.07 1925.44 510.5 1907 C 510.5 1873.89 483.61 1847 450.5 1847 C 417.39 1847 390.5 1873.89 390.5 1907 C 390.5 1923.62 397.27 1938.68 408.21 1949.55 L 449.75 1995.38 L 492.08 1949.55 Z " fill="rgb(32,202,174)"/></g><g id="wasching-machine"><path d="M 420.97 1876.13 L 480.03 1876.13 C 483.14 1876.13 485.66 1878.65 485.66 1881.75 L 485.66 1940.81 C 485.66 1943.92 483.14 1946.44 480.03 1946.44 L 420.97 1946.44 C 417.86 1946.44 415.34 1943.92 415.34 1940.81 L 415.34 1881.75 C 415.34 1878.65 417.86 1876.13 420.97 1876.13 Z" style="stroke:none;fill:#C9D1D7;stroke-miterlimit:10;"/><path d="M 420.97 1876.13 L 480.03 1876.13 C 483.14 1876.13 485.66 1878.65 485.66 1881.75 L 485.66 1940.81 C 485.66 1943.92 483.14 1946.44 480.03 1946.44 L 420.97 1946.44 C 417.86 1946.44 415.34 1943.92 415.34 1940.81 L 415.34 1881.75 C 415.34 1878.65 417.86 1876.13 420.97 1876.13 Z" style="fill:none;stroke:#333333;stroke-width:3.0000000000000004;stroke-linecap:square;stroke-miterlimit:3;"/><clipPath id="_clipPath_biEUjVfQ6g3Y728QbyXV1PSAcCq58BCO"><path d="M 420.97 1876.13 L 480.03 1876.13 C 483.14 1876.13 485.66 1878.65 485.66 1881.75 L 485.66 1940.81 C 485.66 1943.92 483.14 1946.44 480.03 1946.44 L 420.97 1946.44 C 417.86 1946.44 415.34 1943.92 415.34 1940.81 L 415.34 1881.75 C 415.34 1878.65 417.86 1876.13 420.97 1876.13 Z" style="stroke:black;fill:white;stroke-miterlimit:10;"/><path d="M 420.97 1876.13 L 480.03 1876.13 C 483.14 1876.13 485.66 1878.65 485.66 1881.75 L 485.66 1940.81 C 485.66 1943.92 483.14 1946.44 480.03 1946.44 L 420.97 1946.44 C 417.86 1946.44 415.34 1943.92 415.34 1940.81 L 415.34 1881.75 C 415.34 1878.65 417.86 1876.13 420.97 1876.13 Z" style="fill:white;stroke:black;stroke-width:3.0000000000000004;stroke-linecap:square;stroke-miterlimit:3;"/></clipPath><g clip-path="url(#_clipPath_biEUjVfQ6g3Y728QbyXV1PSAcCq58BCO)"><path d=" M 415.34 1895.03 L 441.05 1895.03 M 444.83 1895.03 L 447.85 1895.03 M 451.63 1895.03 L 465.24 1895.03 M 468.27 1895.03 L 485.66 1895.03" fill-rule="evenodd" fill="none" vector-effect="non-scaling-stroke" stroke-width="2.25" stroke-dasharray="0,0,0,0" stroke="rgb(51,51,51)" stroke-linejoin="miter" stroke-linecap="round" stroke-miterlimit="3"/></g><path d=" M 432.73 1922.11 C 432.73 1912.17 440.8 1904.1 450.74 1904.1 C 460.68 1904.1 468.75 1912.17 468.75 1922.11 C 468.75 1932.05 460.68 1940.11 450.74 1940.11 C 440.8 1940.11 432.73 1932.05 432.73 1922.11 Z " fill="none" vector-effect="non-scaling-stroke" stroke-width="2.25" stroke-dasharray="25,10,2,10" stroke="rgb(51,51,51)" stroke-linejoin="miter" stroke-linecap="round" stroke-miterlimit="3"/><path d=" M 437.02 1922.11 C 437.02 1914.54 443.17 1908.39 450.74 1908.39 C 458.31 1908.39 464.46 1914.54 464.46 1922.11 C 464.46 1929.68 458.31 1935.83 450.74 1935.83 C 443.17 1935.83 437.02 1929.68 437.02 1922.11 Z " fill="rgb(84,178,219)" vector-effect="non-scaling-stroke" stroke-width="3" stroke="rgb(51,51,51)" stroke-linejoin="miter" stroke-linecap="square" stroke-miterlimit="3"/><path d="M 420.88 1885.2 L 435.76 1885.2 C 436.73 1885.2 437.52 1885.99 437.52 1886.95 L 437.52 1887.2 C 437.52 1888.16 436.73 1888.95 435.76 1888.95 L 420.88 1888.95 C 419.91 1888.95 419.12 1888.16 419.12 1887.2 L 419.12 1886.95 C 419.12 1885.99 419.91 1885.2 420.88 1885.2 Z" style="stroke:none;fill:#333333;stroke-linecap:square;stroke-miterlimit:3;"/><path d=" M 470.54 1887.07 C 470.54 1886.04 471.38 1885.2 472.41 1885.2 C 473.45 1885.2 474.29 1886.04 474.29 1887.07 C 474.29 1888.11 473.45 1888.95 472.41 1888.95 C 471.38 1888.95 470.54 1888.11 470.54 1887.07 Z " fill="rgb(51,51,51)" vector-effect="non-scaling-stroke" stroke-width="0.75" stroke="rgb(51,51,51)" stroke-linejoin="miter" stroke-linecap="square" stroke-miterlimit="3"/><path d=" M 478.1 1887.07 C 478.1 1886.04 478.94 1885.2 479.97 1885.2 C 481.01 1885.2 481.85 1886.04 481.85 1887.07 C 481.85 1888.11 481.01 1888.95 479.97 1888.95 C 478.94 1888.95 478.1 1888.11 478.1 1887.07 Z " fill="rgb(51,51,51)" vector-effect="non-scaling-stroke" stroke-width="0.75" stroke="rgb(51,51,51)" stroke-linejoin="miter" stroke-linecap="square" stroke-miterlimit="3"/></g></g></svg>