<?xml version="1.0" standalone="no"?><!-- Generator: Gravit.io --><svg xmlns="http://www.w3.org/2000/svg" xmlns:xlink="http://www.w3.org/1999/xlink" style="isolation:isolate" viewBox="228 25 22 22" width="22" height="22"><g id="search"><path d=" M 241.46 39.54 C 240.18 40.58 238.58 41.14 236.93 41.14 C 232.95 41.14 229.72 37.91 229.72 33.93 C 229.72 29.95 232.95 26.72 236.93 26.72 C 240.91 26.72 244.14 29.95 244.14 33.93 C 244.14 35.58 243.58 37.18 242.54 38.46 L 248.28 44.21 L 247.21 45.28 L 241.46 39.54 L 241.46 39.54 Z  M 243.38 33.93 C 243.38 37.49 240.49 40.38 236.93 40.38 C 233.37 40.38 230.48 37.49 230.48 33.93 C 230.48 30.37 233.37 27.48 236.93 27.48 C 240.49 27.48 243.38 30.37 243.38 33.93 L 243.38 33.93 Z " fill-rule="evenodd" fill="rgb(195,195,195)" vector-effect="non-scaling-stroke" stroke-width="0.5" stroke="rgb(195,195,195)" stroke-linejoin="miter" stroke-linecap="butt" stroke-miterlimit="4"/><rect x="228" y="25" width="22" height="22" transform="matrix(1,0,0,1,0,0)" fill="none"/></g></svg>