<svg xmlns="http://www.w3.org/2000/svg" style="isolation:isolate" viewBox="391.879 152.233 32 32" width="32" height="32"><path d="M407.88 154.73c1.25 0 2.44.16 3.59.48 1.15.32 2.23.77 3.23 1.36 3.04 1.77 5.27 4.67 6.2 8.07.32 1.17.48 2.38.48 3.59a13.367 13.367 0 0 1-1.84 6.82 13.41 13.41 0 0 1-8.07 6.2c-1.17.33-2.38.49-3.59.48-1.21.01-2.42-.15-3.59-.48-1.13-.31-2.22-.76-3.23-1.35a13.505 13.505 0 0 1-6.2-8.07 13.64 13.64 0 0 1-.48-3.6c0-1.24.16-2.44.48-3.59.31-1.13.77-2.21 1.36-3.23 1.77-3.04 4.67-5.27 8.07-6.2 1.17-.32 2.38-.48 3.59-.48zm0 25.2c1.07 0 2.1-.14 3.1-.42.98-.27 1.92-.67 2.8-1.18 1.74-1.01 3.18-2.46 4.2-4.2.5-.87.9-1.8 1.18-2.79.28-.99.42-2.03.42-3.11 0-1.07-.14-2.1-.42-3.1-.28-.98-.67-1.92-1.18-2.8a11.713 11.713 0 0 0-4.2-4.19c-.87-.51-1.8-.9-2.8-1.19a11.66 11.66 0 0 0-6.21 0c-.98.28-1.91.68-2.79 1.19a11.713 11.713 0 0 0-4.2 4.19c-.5.87-.9 1.8-1.18 2.8-.28 1.01-.42 2.06-.42 3.1 0 1.07.14 2.11.42 3.1.27.98.67 1.92 1.18 2.8 1.02 1.74 2.46 3.19 4.2 4.2.87.51 1.8.9 2.79 1.18 1.01.29 2.06.43 3.11.42zm6.12-17.28l1.26 1.27-9.63 9.64-5.13-5.14 1.26-1.27 3.87 3.87 8.37-8.37z" fill-rule="evenodd" fill="#20CA4B" vector-effect="non-scaling-stroke" stroke-width=".6" stroke="#FFF" stroke-linecap="square" stroke-miterlimit="3"/><path fill="none" d="M391.879 152.233h32v32h-32z"/></svg>
