<svg xmlns="http://www.w3.org/2000/svg" style="isolation:isolate" viewBox="391.879 204.233 32 32" width="32" height="32"><path d="M407.88 206.73c-7.45 0-13.5 6.06-13.5 13.5 0 7.45 6.05 13.5 13.5 13.5s13.5-6.05 13.5-13.5c0-7.44-6.05-13.5-13.5-13.5zm0 1.23c6.79 0 12.27 5.49 12.27 12.27 0 6.79-5.48 12.28-12.27 12.28-6.79 0-12.27-5.49-12.27-12.28 0-6.78 5.48-12.27 12.27-12.27zm-5.27 6.42c-.03.01-.06.02-.08.02-.23.04-.42.21-.48.44-.06.22 0 .46.17.62l4.78 4.77-4.78 4.78c-.11.11-.18.27-.18.44 0 .16.07.32.18.44.12.12.28.18.44.18.17 0 .33-.06.44-.18l4.78-4.77 4.77 4.77c.25.24.64.24.89 0 .11-.12.18-.28.18-.44 0-.17-.07-.33-.18-.44l-4.78-4.78 4.78-4.77c.19-.19.25-.48.13-.72a.624.624 0 0 0-.65-.34c-.14.02-.27.08-.37.18l-4.77 4.77-4.78-4.77a.608.608 0 0 0-.49-.2z" fill="#C3C3C3"/><path fill="none" d="M391.879 204.233h32v32h-32z"/></svg>
