<svg xmlns="http://www.w3.org/2000/svg" style="isolation:isolate" viewBox="1232.25 294.652 43.5 33.087" width="43.5" height="33.087"><path d="M1241.28 309.51c-1.13.08-2.2.38-3.17.84a.671.671 0 1 1-1.16.68c-.91.62-1.69 1.41-2.32 2.32.31.19.41.59.23.9a.67.67 0 0 1-.9.26c-.47.97-.76 2.04-.85 3.17.36.01.65.31.65.67 0 .36-.29.66-.65.67.09 1.13.38 2.2.85 3.17.32-.17.72-.06.9.25.18.32.08.72-.22.91.62.91 1.4 1.69 2.31 2.32.19-.31.59-.41.91-.23.31.18.42.58.26.9.96.47 2.03.76 3.16.85.01-.36.31-.65.67-.65.37 0 .66.29.68.65 1.12-.09 2.19-.38 3.16-.85a.67.67 0 0 1 .26-.9c.31-.18.71-.08.9.23.91-.63 1.7-1.41 2.32-2.32a.68.68 0 0 1-.22-.91c.18-.31.58-.42.89-.25.47-.97.77-2.04.85-3.17a.673.673 0 0 1-.65-.67c0-.36.29-.66.65-.67-.08-1.13-.38-2.2-.85-3.17a.66.66 0 0 1-.89-.26.671.671 0 0 1 .22-.9c-.62-.91-1.41-1.7-2.32-2.32-.19.3-.59.41-.9.22a.66.66 0 0 1-.26-.89c-.97-.47-2.04-.77-3.16-.85-.02.36-.31.65-.68.65-.36 0-.66-.29-.67-.65z" fill="#6C6C6C" vector-effect="non-scaling-stroke" stroke="#333" stroke-linejoin="round" stroke-linecap="round" stroke-miterlimit="3"/><path d="M1232.75 313.62c1.77-3.27 5.23-5.49 9.2-5.49 5.77 0 10.46 4.68 10.46 10.45 0 .51-.04 1.02-.11 1.51" fill="none" vector-effect="non-scaling-stroke" stroke="#333" stroke-linecap="round" stroke-miterlimit="3"/><path d="M1236.84 318.58c0-2.82 2.29-5.11 5.11-5.11 2.82 0 5.11 2.29 5.11 5.11 0 2.82-2.29 5.11-5.11 5.11-2.82 0-5.11-2.29-5.11-5.11z" fill="#A2731E" vector-effect="non-scaling-stroke" stroke="#333" stroke-miterlimit="3"/><path d="M1240.9 318.58a1.05 1.05 0 1 1 2.1 0 1.05 1.05 0 0 1-2.1 0z" fill="none" vector-effect="non-scaling-stroke" stroke="#333" stroke-miterlimit="3"/><path d="M1242.16 321a.3.3 0 0 1-.3.3c-.16 0-.3-.14-.3-.3 0-.17.14-.3.3-.3.17 0 .3.13.3.3zM1239.96 319.97c-.14.08-.32.03-.41-.11a.306.306 0 0 1 .11-.41c.15-.08.33-.03.41.11.08.14.04.33-.11.41zM1239.75 317.55a.294.294 0 0 1-.1-.41c.08-.14.26-.19.4-.11.15.08.2.27.11.41-.08.14-.26.19-.41.11zM1241.75 316.16c0-.16.13-.3.29-.3.17 0 .3.14.3.3 0 .17-.13.3-.3.3-.16 0-.29-.13-.29-.3zM1243.94 317.19c.15-.08.33-.03.41.11.08.14.04.33-.11.41-.14.08-.32.03-.41-.11a.306.306 0 0 1 .11-.41zM1244.15 319.61c.14.08.19.27.11.41-.08.14-.27.19-.41.11a.306.306 0 0 1-.11-.41c.08-.14.27-.19.41-.11z" fill="#333"/><g><path d="M1237.49 309.05v-5.44c2.96-.06 2.82 1.23 3.59 4.42" fill="#6C6C6C" vector-effect="non-scaling-stroke" stroke="#333" stroke-linejoin="round" stroke-linecap="round" stroke-miterlimit="3"/><path d="M1253.24 305.73h13.67c1.7 0 3.09 1.32 3.09 2.95h-18.33l1.57-2.95z" fill="#E85E5E" vector-effect="non-scaling-stroke" stroke="#333" stroke-linejoin="round" stroke-linecap="square" stroke-miterlimit="3"/><path d="M1251.21 313.84c1.04-.86 2.18-2 1.84-5.16H1270v10.13h-17.59c.09-1.86-.3-3.51-1.2-4.97z" fill="#DF4848" vector-effect="non-scaling-stroke" stroke="#333" stroke-linejoin="round" stroke-linecap="square" stroke-miterlimit="3"/><path fill="none" vector-effect="non-scaling-stroke" stroke="#333" stroke-linecap="square" stroke-miterlimit="3" d="M1266.315 308.678h3.684v10.132h-3.684zM1252.407 317.152h13.908v1.658h-13.908z"/><path vector-effect="non-scaling-stroke" stroke="#333" stroke-linecap="round" stroke-miterlimit="3" d="M1255.35 310.98h3.97M1255.4 312.45h3.96"/><path d="M1256.2 313.84h2.73c.47 0 .85.37.85.83 0 .45-.38.82-.85.82h-2.73c-.47 0-.85-.37-.85-.82 0-.46.38-.83.85-.83z" fill="none" stroke="#333" stroke-linecap="round" stroke-miterlimit="3"/><path vector-effect="non-scaling-stroke" stroke="#333" stroke-linecap="square" stroke-miterlimit="3" d="M1267.88 310.61h1.94M1267.88 312.09h1.94M1267.88 313.56h1.94M1267.88 315.03h1.94"/><path vector-effect="non-scaling-stroke" stroke="#333" stroke-linecap="round" stroke-miterlimit="3" d="M1247.89 307.3l3.96-4.79"/><path vector-effect="non-scaling-stroke" stroke="#333" stroke-linecap="square" stroke-miterlimit="3" d="M1250.01 304.9l2.58 1.94"/><path d="M1261.89 303.5h2.12v10.96c0 .57-.46 1.03-1.03 1.03h-.05c-.57 0-1.04-.46-1.04-1.03V303.5z" fill="#ca6a20"/><path d="M1261.89 303.5h2.12v10.96c0 .57-.46 1.03-1.03 1.03h-.05c-.57 0-1.04-.46-1.04-1.03V303.5z" fill="none" stroke="#333" stroke-linecap="square" stroke-miterlimit="3"/><path fill="#6C6C6C" vector-effect="non-scaling-stroke" stroke="#333" stroke-linecap="square" stroke-miterlimit="3" d="M1262.217 296.152h1.474v7.348h-1.474z"/></g><g stroke="#333" stroke-linecap="square" stroke-miterlimit="3"><path d="M1264.84 322.03c0-2.87 2.33-5.2 5.21-5.2 2.87 0 5.2 2.33 5.2 5.2a5.205 5.205 0 1 1-10.41 0z" fill="#6C6C6C" vector-effect="non-scaling-stroke"/><path d="M1267.12 322.03c0-1.58 1.29-2.87 2.88-2.87 1.59 0 2.88 1.29 2.88 2.87a2.88 2.88 0 0 1-5.76 0z" fill="#A2731E" vector-effect="non-scaling-stroke"/><path d="M1269.17 322.03c0-.45.37-.82.83-.82a.826.826 0 1 1 0 1.65c-.46 0-.83-.37-.83-.83z" fill="none" vector-effect="non-scaling-stroke"/></g><path vector-effect="non-scaling-stroke" stroke-dasharray="3,3,34,1" stroke="#333" stroke-linecap="round" stroke-miterlimit="3" d="M1232.75 327.24h41.96"/></svg>
