<svg xmlns="http://www.w3.org/2000/svg" style="isolation:isolate" viewBox="1230 199.329 47.999 43.459" width="47.999" height="43.459"><path d="M1233.82 226.12h40.17v10.82c0 1-.8 1.81-1.8 1.81h-36.57c-.99 0-1.8-.81-1.8-1.81v-10.82z" fill="#fff"/><path d="M1233.82 226.12h40.17v10.82c0 1-.8 1.81-1.8 1.81h-36.57c-.99 0-1.8-.81-1.8-1.81v-10.82z" fill="none" stroke="#333" stroke-width="2" stroke-linecap="square" stroke-linejoin="round" stroke-miterlimit="3"/><clipPath id="a"><path d="M1233.82 226.12h40.17v10.82c0 1-.8 1.81-1.8 1.81h-36.57c-.99 0-1.8-.81-1.8-1.81v-10.82z" stroke="#000" fill="#fff" stroke-miterlimit="10"/><path d="M1233.82 226.12h40.17v10.82c0 1-.8 1.81-1.8 1.81h-36.57c-.99 0-1.8-.81-1.8-1.81v-10.82z" fill="#fff" stroke="#000" stroke-width="2" stroke-linecap="square" stroke-linejoin="round" stroke-miterlimit="3"/></clipPath><g clip-path="url(#a)"><path fill="#54B2DB" d="M1233.823 230.928h40.171v8.118h-40.171z"/></g><path vector-effect="non-scaling-stroke" stroke-width="2" stroke="#333" stroke-linecap="square" stroke-miterlimit="3" d="M1231 226.12h46"/><path d="M1233.82 207.57c0-2.89 2.35-5.24 5.25-5.24 1.5 0 2.85.63 3.8 1.65M1242.82 210.59a4.315 4.315 0 0 1-1.22-3.02 4.4 4.4 0 0 1 4.4-4.4c1.17 0 2.23.46 3.01 1.22l-6.19 6.2zm-9-3.86v20.63" fill="none" vector-effect="non-scaling-stroke" stroke-width="2" stroke="#333" stroke-miterlimit="3"/><path d="M1237.16 241.38c0-.78.63-1.42 1.41-1.42.78 0 1.41.64 1.41 1.42 0 .78-.63 1.41-1.41 1.41-.78 0-1.41-.63-1.41-1.41zM1267.77 241.38c0-.78.63-1.42 1.41-1.42.78 0 1.41.64 1.41 1.42 0 .78-.63 1.41-1.41 1.41-.78 0-1.41-.63-1.41-1.41z" fill="#333"/><path vector-effect="non-scaling-stroke" stroke-width="2" stroke-dasharray="2,3,14" stroke="#333" stroke-linecap="round" stroke-miterlimit="3" d="M1245.54 210.11l5.42 5.41"/><path vector-effect="non-scaling-stroke" stroke-width="2" stroke-dasharray="4,3,9" stroke="#333" stroke-linecap="round" stroke-miterlimit="3" d="M1247.57 208.42l5.42 5.41"/><path vector-effect="non-scaling-stroke" stroke-width="2" stroke-dasharray="1,3,12" stroke="#333" stroke-linecap="round" stroke-miterlimit="3" d="M1249.6 206.73l3.39 3.38"/><path vector-effect="non-scaling-stroke" stroke-width="2" stroke="#333" stroke-linecap="round" stroke-miterlimit="3" d="M1238.29 235.14h33.24"/></svg>
