<svg xmlns="http://www.w3.org/2000/svg" style="isolation:isolate" viewBox="1232.506 111.927 42.988 42.988" width="42.988" height="42.988"><path d="M1238.25 114.67h31.5c1.66 0 3 1.35 3 3v31.5c0 1.66-1.34 3-3 3h-31.5c-1.66 0-3-1.34-3-3v-31.5c0-1.65 1.34-3 3-3z" fill="#c9d1d7"/><path d="M1238.25 114.67h31.5c1.66 0 3 1.35 3 3v31.5c0 1.66-1.34 3-3 3h-31.5c-1.66 0-3-1.34-3-3v-31.5c0-1.65 1.34-3 3-3z" fill="none" stroke="#333" stroke-width="1.829" stroke-linecap="square" stroke-miterlimit="3"/><clipPath id="a"><path d="M1238.25 114.67h31.5c1.66 0 3 1.35 3 3v31.5c0 1.66-1.34 3-3 3h-31.5c-1.66 0-3-1.34-3-3v-31.5c0-1.65 1.34-3 3-3z" stroke="#000" fill="#fff" stroke-miterlimit="10"/><path d="M1238.25 114.67h31.5c1.66 0 3 1.35 3 3v31.5c0 1.66-1.34 3-3 3h-31.5c-1.66 0-3-1.34-3-3v-31.5c0-1.65 1.34-3 3-3z" fill="#fff" stroke="#000" stroke-width="1.829" stroke-linecap="square" stroke-miterlimit="3"/></clipPath><g clip-path="url(#a)"><path d="M1235.25 124.75h13.71m2.02 0h1.61m2.01 0h7.26m1.62 0h9.27" fill="none" vector-effect="non-scaling-stroke" stroke-width="2" stroke-dasharray="0,0,0,0" stroke="#333" stroke-linecap="round" stroke-miterlimit="3"/></g><path d="M1244.52 139.19c0-5.3 4.31-9.6 9.61-9.6s9.6 4.3 9.6 9.6-4.3 9.61-9.6 9.61-9.61-4.31-9.61-9.61z" fill="none" vector-effect="non-scaling-stroke" stroke-dasharray="7,4,1,4" stroke="#333" stroke-linecap="round" stroke-miterlimit="3"/><path d="M1246.81 139.19c0-4.03 3.28-7.31 7.32-7.31 4.04 0 7.31 3.28 7.31 7.31 0 4.04-3.27 7.32-7.31 7.32-4.04 0-7.32-3.28-7.32-7.32z" fill="#C7ECED" vector-effect="non-scaling-stroke" stroke-width="2" stroke="#333" stroke-linecap="square" stroke-miterlimit="3"/><path d="M1238.2 119.51h7.94c.52 0 .94.42.94.94v.12c0 .52-.42.94-.94.94h-7.94c-.51 0-.93-.42-.93-.94v-.12c0-.52.42-.94.93-.94zM1264.69 120.51c0-.55.44-1 1-1 .55 0 1 .45 1 1s-.45 1-1 1c-.56 0-1-.45-1-1zM1268.72 120.51c0-.55.45-1 1-1s1 .45 1 1-.45 1-1 1-1-.45-1-1z" fill="#333"/></svg>
