<svg xmlns="http://www.w3.org/2000/svg" style="isolation:isolate" viewBox="377 196 64 96.137" width="64" height="79"><path d="M377 245c0-17.66 14.34-32 32-32s32 14.34 32 32-14.34 32-32 32-32-14.34-32-32z" fill="none"/><path d="M431.17 267.69c6.73-6.58 9.6-12.86 9.83-22.69 0-17.66-14.34-32-32-32s-32 14.34-32 32c0 8.87 3.61 16.89 9.45 22.69l22.15 24.45 22.57-24.45z" fill="#20CAAE"/><g><path d="M403.62 224.26h10.76c4.48 0 8.12 3.63 8.12 8.11v30.3c0 1.7-1.38 3.07-3.08 3.07h-20.84c-1.7 0-3.08-1.37-3.08-3.07v-30.3c0-4.48 3.64-8.11 8.12-8.11z" fill="#c9d1d7"/><path d="M403.62 224.26h10.76c4.48 0 8.12 3.63 8.12 8.11v30.3c0 1.7-1.38 3.07-3.08 3.07h-20.84c-1.7 0-3.08-1.37-3.08-3.07v-30.3c0-4.48 3.64-8.11 8.12-8.11z" fill="none" stroke="#333" stroke-width="2" stroke-linecap="square" stroke-linejoin="round" stroke-miterlimit="3"/><path d="M390.6 230.25h36.8c1.65 0 3 1.35 3 3.01v4.99c0 1.66-1.35 3-3 3h-36.8c-1.65 0-3-1.34-3-3v-4.99a3.01 3.01 0 0 1 3-3.01z" fill="#339155"/><path d="M390.6 230.25h36.8c1.65 0 3 1.35 3 3.01v4.99c0 1.66-1.35 3-3 3h-36.8c-1.65 0-3-1.34-3-3v-4.99a3.01 3.01 0 0 1 3-3.01z" fill="none" stroke="#333" stroke-width="2" stroke-linecap="square" stroke-linejoin="round" stroke-miterlimit="3"/><path d="M402.75 249.25h12.5a2 2 0 0 1 2 2v5.5c0 1.1-.9 2-2 2h-12.5c-1.1 0-2-.9-2-2v-5.5a2 2 0 0 1 2-2z" fill="#9ca9b3"/><path fill="#333" d="M400.752 227.255h2.499v16.995h-2.499zM414.748 227.255h2.499v16.995h-2.499z"/></g></svg>
