<svg xmlns="http://www.w3.org/2000/svg" style="isolation:isolate" viewBox="1024.41 263.863 64 96.137" width="64" height="79"><path d="M1024.41 315.15c0-17.66 14.34-32 32-32s32 14.34 32 32-14.34 32-32 32-32-14.34-32-32z" fill="none"/><path d="M1078.58 335.55c6.73-6.58 9.6-12.85 9.83-22.69 0-17.66-14.34-32-32-32s-32 14.34-32 32c0 8.87 3.61 16.9 9.45 22.69l22.15 24.45 22.57-24.45z" fill="#20CAAE"/><g><path d="M1028.62 322.61l18.36-24.92 18.7 24.92h-37.06z" fill="#333"/><clipPath id="a"><path d="M1028.62 322.61l18.36-24.92 18.7 24.92h-37.06z" fill="#333"/></clipPath><g clip-path="url(#a)"><path d="M1028.62 335.07l18.36-24.92 18.7 24.92h-37.06z" fill="#20CAAE"/></g><path d="M1047.15 322.61l18.36-24.92 18.7 24.92h-37.06z" fill="#333"/><clipPath id="b"><path d="M1047.15 322.61l18.36-24.92 18.7 24.92h-37.06z" fill="#333"/></clipPath><g clip-path="url(#b)"><path d="M1047.15 335.07l18.36-24.92 18.7 24.92h-37.06z" fill="#20CAAE"/></g></g></svg>
