<svg xmlns="http://www.w3.org/2000/svg" style="isolation:isolate" viewBox="24 299 64 96.137" width="64" height="79"><path d="M24 350.28c0-17.66 14.34-32 32-32s32 14.34 32 32c0 17.67-14.34 32-32 32s-32-14.33-32-32z" fill="none"/><path d="M78.17 370.69c6.73-6.58 9.6-12.86 9.83-22.69 0-17.66-14.34-32-32-32s-32 14.34-32 32c0 8.87 3.61 16.89 9.45 22.69l22.15 24.45 22.57-24.45z" fill="#20CAAE"/><g><path d="M35.82 353.84h40.17v10.83c0 .99-.8 1.8-1.8 1.8H37.62c-.99 0-1.8-.81-1.8-1.8v-10.83z" fill="#fff"/><path d="M35.82 353.84h40.17v10.83c0 .99-.8 1.8-1.8 1.8H37.62c-.99 0-1.8-.81-1.8-1.8v-10.83z" fill="none" stroke="#333" stroke-width="2" stroke-linecap="square" stroke-linejoin="round" stroke-miterlimit="3"/><clipPath id="a"><path d="M35.82 353.84h40.17v10.83c0 .99-.8 1.8-1.8 1.8H37.62c-.99 0-1.8-.81-1.8-1.8v-10.83z" stroke="#000" fill="#fff" stroke-miterlimit="10"/><path d="M35.82 353.84h40.17v10.83c0 .99-.8 1.8-1.8 1.8H37.62c-.99 0-1.8-.81-1.8-1.8v-10.83z" fill="#fff" stroke="#000" stroke-width="2" stroke-linecap="square" stroke-linejoin="round" stroke-miterlimit="3"/></clipPath><g clip-path="url(#a)"><path fill="#54B2DB" d="M35.823 358.654h40.171v8.118H35.823z"/></g><path vector-effect="non-scaling-stroke" stroke-width="2" stroke="#333" stroke-linecap="square" stroke-miterlimit="3" d="M33 353.84h46"/><path d="M35.82 335.3c0-2.9 2.35-5.25 5.25-5.25 1.5 0 2.85.64 3.8 1.66M44.82 338.31a4.29 4.29 0 0 1-1.22-3.01 4.4 4.4 0 0 1 4.4-4.4c1.17 0 2.23.46 3.01 1.21l-6.19 6.2zm-9-3.86v20.63" fill="none" vector-effect="non-scaling-stroke" stroke-width="2" stroke="#333" stroke-miterlimit="3"/><path d="M39.16 369.1c0-.78.63-1.41 1.41-1.41.78 0 1.41.63 1.41 1.41 0 .78-.63 1.41-1.41 1.41-.78 0-1.41-.63-1.41-1.41zM69.77 369.1c0-.78.63-1.41 1.41-1.41.78 0 1.41.63 1.41 1.41 0 .78-.63 1.41-1.41 1.41-.78 0-1.41-.63-1.41-1.41z" fill="#333"/><path vector-effect="non-scaling-stroke" stroke-width="2" stroke-dasharray="2,3,14" stroke="#333" stroke-linecap="round" stroke-miterlimit="3" d="M47.54 337.83l5.42 5.42"/><path vector-effect="non-scaling-stroke" stroke-width="2" stroke-dasharray="4,3,9" stroke="#333" stroke-linecap="round" stroke-miterlimit="3" d="M49.57 336.14l5.42 5.41"/><path vector-effect="non-scaling-stroke" stroke-width="2" stroke-dasharray="1,3,12" stroke="#333" stroke-linecap="round" stroke-miterlimit="3" d="M51.6 334.45l3.39 3.38"/><path vector-effect="non-scaling-stroke" stroke-width="2" stroke="#333" stroke-linecap="round" stroke-miterlimit="3" d="M40.29 362.86h33.24"/></g></svg>
