<svg xmlns="http://www.w3.org/2000/svg" style="isolation:isolate" viewBox="260 184 64 96.137" width="64" height="79"><path d="M260 235.28c0-17.66 14.34-32 32-32s32 14.34 32 32c0 17.67-14.34 32-32 32s-32-14.33-32-32z" fill="none"/><path d="M314.17 255.69c6.73-6.58 9.6-12.86 9.83-22.69 0-17.66-14.34-32-32-32s-32 14.34-32 32c0 8.87 3.61 16.89 9.45 22.69l22.15 24.45 22.57-24.45z" fill="#20CAAE"/><g><path d="M276.25 216.53h31.5c1.66 0 3 1.35 3 3v31.5c0 1.66-1.34 3-3 3h-31.5c-1.66 0-3-1.34-3-3v-31.5c0-1.65 1.34-3 3-3z" fill="#c9d1d7"/><path d="M276.25 216.53h31.5c1.66 0 3 1.35 3 3v31.5c0 1.66-1.34 3-3 3h-31.5c-1.66 0-3-1.34-3-3v-31.5c0-1.65 1.34-3 3-3z" fill="none" stroke="#333" stroke-width="1.829" stroke-linecap="square" stroke-miterlimit="3"/><clipPath id="a"><path d="M276.25 216.53h31.5c1.66 0 3 1.35 3 3v31.5c0 1.66-1.34 3-3 3h-31.5c-1.66 0-3-1.34-3-3v-31.5c0-1.65 1.34-3 3-3z" stroke="#000" fill="#fff" stroke-miterlimit="10"/><path d="M276.25 216.53h31.5c1.66 0 3 1.35 3 3v31.5c0 1.66-1.34 3-3 3h-31.5c-1.66 0-3-1.34-3-3v-31.5c0-1.65 1.34-3 3-3z" fill="#fff" stroke="#000" stroke-width="1.829" stroke-linecap="square" stroke-miterlimit="3"/></clipPath><g clip-path="url(#a)"><path d="M273.25 226.61h13.71m2.02 0h1.61m2.01 0h7.26m1.62 0h9.27" fill="none" vector-effect="non-scaling-stroke" stroke-width="2" stroke-dasharray="0,0,0,0" stroke="#333" stroke-linecap="round" stroke-miterlimit="3"/></g><path d="M282.52 241.06c0-5.3 4.31-9.61 9.61-9.61s9.6 4.31 9.6 9.61-4.3 9.6-9.6 9.6-9.61-4.3-9.61-9.6z" fill="none" vector-effect="non-scaling-stroke" stroke-dasharray="7,4,1,4" stroke="#333" stroke-linecap="round" stroke-miterlimit="3"/><path d="M284.81 241.06c0-4.04 3.28-7.32 7.32-7.32 4.04 0 7.31 3.28 7.31 7.32 0 4.04-3.27 7.31-7.31 7.31-4.04 0-7.32-3.27-7.32-7.31z" fill="#C7ECED" vector-effect="non-scaling-stroke" stroke-width="2" stroke="#333" stroke-linecap="square" stroke-miterlimit="3"/><path d="M276.2 221.37h7.94c.52 0 .94.42.94.94v.13c0 .51-.42.93-.94.93h-7.94c-.51 0-.93-.42-.93-.93v-.13c0-.52.42-.94.93-.94zM302.69 222.37c0-.55.44-1 1-1 .55 0 1 .45 1 1s-.45 1-1 1c-.56 0-1-.45-1-1zM306.72 222.37c0-.55.45-1 1-1s1 .45 1 1-.45 1-1 1-1-.45-1-1z" fill="#333"/></g></svg>
